<?xml version="1.0" encoding="UTF-8" standalone="no"?>
<!-- Created with Inkscape (http://www.inkscape.org/) -->

<svg
   width="12.058172"
   height="11.094489"
   viewBox="0 0 12.058172 11.094489"
   version="1.1"
   id="svg1"
   xml:space="preserve"
   inkscape:version="1.3.2 (091e20e, 2023-11-25, custom)"
   sodipodi:docname="Angle.svg"
   xmlns:inkscape="http://www.inkscape.org/namespaces/inkscape"
   xmlns:sodipodi="http://sodipodi.sourceforge.net/DTD/sodipodi-0.dtd"
   xmlns="http://www.w3.org/2000/svg"
   xmlns:svg="http://www.w3.org/2000/svg"><sodipodi:namedview
     id="namedview1"
     pagecolor="#ffffff"
     bordercolor="#666666"
     borderopacity="1.0"
     inkscape:showpageshadow="2"
     inkscape:pageopacity="0.0"
     inkscape:pagecheckerboard="0"
     inkscape:deskcolor="#d1d1d1"
     inkscape:document-units="mm"
     inkscape:zoom="0.72248176"
     inkscape:cx="429.07658"
     inkscape:cy="381.3245"
     inkscape:window-width="1920"
     inkscape:window-height="1046"
     inkscape:window-x="-11"
     inkscape:window-y="-11"
     inkscape:window-maximized="1"
     inkscape:current-layer="layer1" /><defs
     id="defs1" /><g
     inkscape:label="Calque 1"
     inkscape:groupmode="layer"
     id="layer1"
     transform="translate(8.5209458,11.069632)"><path
	   fill="#ffffff"
       d="m -2.9910304,-2.4833021 c -2.837663,-1.36901 -5.276424,-2.66813 -5.419478,-2.88693 -0.183753,-0.28104 -0.140543,-0.51736 0.147212,-0.80511 0.506346,-0.50635 10.455736,-4.8942899 11.097506,-4.8942899 0.52008,0 0.84783,0.59806 0.63364,1.1562299 -0.0765,0.19936 -0.81691,0.65187 -1.64534,1.00557 l -1.50624998,0.6431 v 1.97099 c 0,1.08404 -0.0905,2.26864 -0.20115,2.63244 -0.1872,0.6156 -0.0829,0.71397 1.50444998,1.41878 0.93808,0.41653 1.769,0.92254 1.84649,1.12448 0.23163,0.60361998 -0.12562,1.16214998 -0.7307,1.14238998 -0.31185,-0.0102 -2.88872998,-1.13862998 -5.72638,-2.50764998 z m 1.4269,-1.86109 c 0.23646,-0.61622 0.19542,-2.70374 -0.0562,-2.85926 -0.11925,-0.0737 -1.02193,0.24008 -2.00597,0.69728 l -1.78915,0.83128 1.67524,0.86177 c 1.96475,1.01069 1.96794,1.01138 2.1761,0.46893 z"
       id="path1" /></g></svg>
