<?xml version="1.0" encoding="UTF-8" standalone="no"?>
<!-- Created with Inkscape (http://www.inkscape.org/) -->

<svg
   width="13.40434mm"
   height="13.14151mm"
   viewBox="0 0 13.40434 13.14151"
   version="1.1"
   id="svg1"
   inkscape:version="1.3.2 (091e20e, 2023-11-25, custom)"
   sodipodi:docname="coincident.svg"
   xmlns:inkscape="http://www.inkscape.org/namespaces/inkscape"
   xmlns:sodipodi="http://sodipodi.sourceforge.net/DTD/sodipodi-0.dtd"
   xmlns="http://www.w3.org/2000/svg"
   xmlns:svg="http://www.w3.org/2000/svg">
  <sodipodi:namedview
     id="namedview1"
     pagecolor="#ffffff"
     bordercolor="#666666"
     borderopacity="1.0"
     inkscape:showpageshadow="2"
     inkscape:pageopacity="0.0"
     inkscape:pagecheckerboard="0"
     inkscape:deskcolor="#d1d1d1"
     inkscape:document-units="mm"
     inkscape:zoom="0.72248176"
     inkscape:cx="-38.755304"
     inkscape:cy="-11.765003"
     inkscape:window-width="1920"
     inkscape:window-height="1046"
     inkscape:window-x="-11"
     inkscape:window-y="-11"
     inkscape:window-maximized="1"
     inkscape:current-layer="layer1"
     showgrid="false" />
  <defs
     id="defs1">
    <pattern
       id="EMFhbasepattern"
       patternUnits="userSpaceOnUse"
       width="6"
       height="6"
       x="0"
       y="0" />
  </defs>
  <g
     inkscape:label="Calque 1"
     inkscape:groupmode="layer"
     id="layer1"
     transform="translate(-115.37759,-63.61014)">
    <path
       style="fill:#ffffff;opacity:1"
       d="m 121.15986,75.4375 c 0,-1.28495 0.0175,-1.31415 0.78849,-1.31415 0.77096,0 0.78849,0.0292 0.78849,1.31415 0,1.28495 -0.0175,1.31415 -0.78849,1.31415 -0.77097,0 -0.78849,-0.0292 -0.78849,-1.31415 z m -0.78849,-5.256605 v -1.576981 h 1.57698 1.57698 v 1.576981 1.576981 h -1.57698 -1.57698 z m -4.99378,0 c 0,-0.780526 0.0146,-0.788491 1.44557,-0.788491 1.43096,0 1.44556,0.008 1.44556,0.788491 0,0.780526 -0.0146,0.78849 -1.44556,0.78849 -1.43097,0 -1.44557,-0.008 -1.44557,-0.78849 z m 10.51321,0 c 0,-0.780526 0.0146,-0.788491 1.44557,-0.788491 1.43096,0 1.44556,0.008 1.44556,0.788491 0,0.780526 -0.0146,0.78849 -1.44556,0.78849 -1.43097,0 -1.44557,-0.008 -1.44557,-0.78849 z m -4.73094,-5.256604 c 0,-1.284948 0.0175,-1.314151 0.78849,-1.314151 0.77096,0 0.78849,0.0292 0.78849,1.314151 0,1.284948 -0.0175,1.314151 -0.78849,1.314151 -0.77097,0 -0.78849,-0.0292 -0.78849,-1.314151 z"
       id="path1" />
  </g>
</svg>
