<?xml version="1.0" encoding="UTF-8" standalone="no"?>
<!-- Created with Inkscape (http://www.inkscape.org/) -->

<svg
   width="15.340019"
   height="11.640776"
   viewBox="0 0 15.340019 11.640776"
   version="1.1"
   id="svg1"
   xml:space="preserve"
   inkscape:version="1.3.2 (091e20e, 2023-11-25, custom)"
   sodipodi:docname="diametre.svg"
   xmlns:inkscape="http://www.inkscape.org/namespaces/inkscape"
   xmlns:sodipodi="http://sodipodi.sourceforge.net/DTD/sodipodi-0.dtd"
   xmlns="http://www.w3.org/2000/svg"
   xmlns:svg="http://www.w3.org/2000/svg"><sodipodi:namedview
     id="namedview1"
     pagecolor="#ffffff"
     bordercolor="#666666"
     borderopacity="1.0"
     inkscape:showpageshadow="2"
     inkscape:pageopacity="0.0"
     inkscape:pagecheckerboard="0"
     inkscape:deskcolor="#d1d1d1"
     inkscape:document-units="mm"
     inkscape:zoom="0.72248176"
     inkscape:cx="-1.384118"
     inkscape:cy="353.64214"
     inkscape:window-width="1920"
     inkscape:window-height="1046"
     inkscape:window-x="-11"
     inkscape:window-y="-11"
     inkscape:window-maximized="1"
     inkscape:current-layer="layer1" /><defs
     id="defs1" /><g
     inkscape:label="Calque 1"
     inkscape:groupmode="layer"
     id="layer1"
     transform="translate(-105.35126,-54.768937)"><path
	   fill = "#ffffff"
       d="m 108.61682,65.90068 c -1.00709,-0.457307 -1.12827,-0.462866 -1.52135,-0.06979 -0.39309,0.393081 -0.46358,0.390632 -0.88496,-0.03075 -0.37502,-0.375021 -0.40014,-0.550243 -0.13889,-0.968582 0.25956,-0.41562 0.22273,-0.722783 -0.19779,-1.649369 -1.02911,-2.267556 -0.49538,-5.266826 1.22419,-6.879287 1.67647,-1.572043 4.49122,-1.992128 6.68343,-0.997463 0.9048,0.410534 1.24238,0.457906 1.53463,0.215355 0.56045,-0.465127 1.37939,0.398512 0.97932,1.032761 -0.2159,0.342269 -0.16765,0.713432 0.19711,1.51639 0.99444,2.189061 0.43466,5.216643 -1.25797,6.803844 -1.6535,1.550503 -4.49395,1.991261 -6.61772,1.026882 z m 4.69977,-1.493264 c 1.63963,-0.847887 2.57838,-3.037772 2.08603,-4.866224 -0.15508,-0.575939 -0.37625,-1.105428 -0.49148,-1.176643 -0.11522,-0.07121 -1.55362,1.218459 -3.19643,2.865942 -1.95038,1.955933 -2.87798,3.062753 -2.67299,3.189444 1.13937,0.704168 2.89891,0.699015 4.27487,-0.01252 z M 110.741,60.087684 c 1.59721,-1.602185 2.79452,-3.008872 2.69629,-3.16781 -0.0972,-0.157239 -0.64791,-0.412777 -1.22385,-0.567861 -3.48762,-0.93912 -6.61848,2.93795 -4.97,6.154571 0.13051,0.254661 0.32443,0.463021 0.43093,0.463021 0.1065,0 1.48649,-1.296865 3.06663,-2.881921 z m 9.42111,-0.160788 c -0.26976,-0.325042 -0.25168,-0.396875 0.0999,-0.396875 0.2361,0 0.42927,0.178594 0.42927,0.396875 0,0.218281 -0.045,0.396875 -0.0999,0.396875 -0.055,0 -0.24812,-0.178594 -0.42928,-0.396875 z"
       id="path1" /></g></svg>
