<?xml version="1.0" encoding="UTF-8" standalone="no"?>
<!-- Created with Inkscape (http://www.inkscape.org/) -->

<svg
   width="11.567745"
   height="11.521567"
   viewBox="0 0 11.567745 11.521567"
   version="1.1"
   id="svg1"
   xml:space="preserve"
   inkscape:version="1.3.2 (091e20e, 2023-11-25, custom)"
   sodipodi:docname="distance.svg"
   xmlns:inkscape="http://www.inkscape.org/namespaces/inkscape"
   xmlns:sodipodi="http://sodipodi.sourceforge.net/DTD/sodipodi-0.dtd"
   xmlns="http://www.w3.org/2000/svg"
   xmlns:svg="http://www.w3.org/2000/svg"><sodipodi:namedview
     id="namedview1"
     pagecolor="#ffffff"
     bordercolor="#666666"
     borderopacity="1.0"
     inkscape:showpageshadow="2"
     inkscape:pageopacity="0.0"
     inkscape:pagecheckerboard="0"
     inkscape:deskcolor="#d1d1d1"
     inkscape:document-units="mm"
     inkscape:zoom="0.72248176"
     inkscape:cx="65.053545"
     inkscape:cy="309.35037"
     inkscape:window-width="1920"
     inkscape:window-height="1046"
     inkscape:window-x="-11"
     inkscape:window-y="-11"
     inkscape:window-maximized="1"
     inkscape:current-layer="layer1" /><defs
     id="defs1" /><g
     inkscape:label="Calque 1"
     inkscape:groupmode="layer"
     id="layer1"
     transform="translate(-87.73322,-66.706361)"><path
	   fill = "#ffffff"
       d="m 87.733297,77.949764 c 0.0071,-0.36548 0.398513,-2.15322 0.817283,-3.73333 l 0.27068,-1.02135 0.58795,0.55235 0.58795,0.55235 2.7121,-2.72136 c 2.71174,-2.721 2.71202,-2.72142 2.16214,-3.21906 -0.41458,-0.37518 -0.46608,-0.54342 -0.20924,-0.68343 0.56409,-0.3075 4.45921,-1.10784 4.61814,-0.94891 0.15894,0.15894 -0.64141,4.05405 -0.94891,4.61814 -0.14001,0.25685 -0.30824,0.20534 -0.68343,-0.20924 -0.49764,-0.54988 -0.49806,-0.5496 -3.21906,2.16214 l -2.72136,2.7121 0.55235,0.58795 0.55235,0.58795 -1.02135,0.27068 c -3.25967,0.86391 -4.066764,0.96197 -4.057593,0.49302 z"
       id="path1" /></g></svg>
