<?xml version="1.0" encoding="UTF-8" standalone="no"?>
<!-- Created with Inkscape (http://www.inkscape.org/) -->

<svg
   width="20.667072mm"
   height="20.508028mm"
   viewBox="0 0 20.667072 20.508028"
   version="1.1"
   id="svg1"
   inkscape:version="1.3.2 (091e20e, 2023-11-25, custom)"
   sodipodi:docname="midpoint.svg"
   xmlns:inkscape="http://www.inkscape.org/namespaces/inkscape"
   xmlns:sodipodi="http://sodipodi.sourceforge.net/DTD/sodipodi-0.dtd"
   xmlns="http://www.w3.org/2000/svg"
   xmlns:svg="http://www.w3.org/2000/svg">
  <sodipodi:namedview
     id="namedview1"
     pagecolor="#ffffff"
     bordercolor="#666666"
     borderopacity="1.0"
     inkscape:showpageshadow="2"
     inkscape:pageopacity="0.0"
     inkscape:pagecheckerboard="0"
     inkscape:deskcolor="#d1d1d1"
     inkscape:document-units="mm"
     inkscape:zoom="1"
     inkscape:cx="286"
     inkscape:cy="172.5"
     inkscape:window-width="1920"
     inkscape:window-height="1046"
     inkscape:window-x="-11"
     inkscape:window-y="-11"
     inkscape:window-maximized="1"
     inkscape:current-layer="layer1">
    <inkscape:page
       x="0"
       y="0"
       width="20.667072"
       height="20.508028"
       id="page1"
       margin="3.6621456 70.679413 45.776817 10.620222"
       bleed="0" />
  </sodipodi:namedview>
  <defs
     id="defs1">
    <pattern
       id="EMFhbasepattern"
       patternUnits="userSpaceOnUse"
       width="6"
       height="6"
       x="0"
       y="0" />
    <pattern
       id="EMFhbasepattern-8"
       patternUnits="userSpaceOnUse"
       width="6"
       height="6"
       x="0"
       y="0" />
    <pattern
       id="EMFhbasepattern-9"
       patternUnits="userSpaceOnUse"
       width="6"
       height="6"
       x="0"
       y="0" />
    <pattern
       id="EMFhbasepattern-2"
       patternUnits="userSpaceOnUse"
       width="6"
       height="6"
       x="0"
       y="0" />
    <pattern
       id="EMFhbasepattern-5"
       patternUnits="userSpaceOnUse"
       width="6"
       height="6"
       x="0"
       y="0" />
    <pattern
       id="EMFhbasepattern-4"
       patternUnits="userSpaceOnUse"
       width="6"
       height="6"
       x="0"
       y="0" />
    <pattern
       id="EMFhbasepattern-82"
       patternUnits="userSpaceOnUse"
       width="6"
       height="6"
       x="0"
       y="0" />
  </defs>
  <g
     inkscape:label="Calque 1"
     inkscape:groupmode="layer"
     id="layer1"
     transform="translate(-34.42417,118.65351)">
    <path
       style="fill:#ffffff"
       d="m 41.2988,-104.00654 c 0,-2.05102 -0.0717,-2.50518 -0.395513,-2.50518 -0.570646,0 -0.570646,-3.11378 0,-3.33278 0.312723,-0.12001 0.395513,-0.67027 0.395513,-2.62876 0,-2.46629 0.0028,-2.47696 0.659187,-2.47696 0.654113,0 0.659188,0.0182 0.659188,2.36405 0,2.09416 0.0602,2.39627 0.52735,2.64631 0.303033,0.1622 0.52735,0.55215 0.52735,0.91675 0,0.53513 0.51612,0.93165 3.295937,2.53217 1.812766,1.04373 3.292164,1.97036 3.287552,2.05919 -0.0046,0.0888 -0.177605,0.38503 -0.384428,0.65823 -0.359186,0.47446 -0.501896,0.4233 -3.183678,-1.14127 -1.544199,-0.90089 -3.026862,-1.68021 -3.294805,-1.73181 -0.593551,-0.11432 -0.830959,0.51815 -0.770392,2.0524 0.109943,2.78504 0.04385,3.09284 -0.664074,3.09284 -0.656874,0 -0.659187,-0.009 -0.659187,-2.50518 z"
       id="path3" />
  </g>
</svg>
