<?xml version="1.0" encoding="UTF-8" standalone="no"?>
<!-- Created with Inkscape (http://www.inkscape.org/) -->

<svg
   width="20.667072mm"
   height="20.508028mm"
   viewBox="0 0 20.667072 20.508028"
   version="1.1"
   id="svg1"
   inkscape:version="1.3.2 (091e20e, 2023-11-25, custom)"
   sodipodi:docname="tangent.svg"
   xmlns:inkscape="http://www.inkscape.org/namespaces/inkscape"
   xmlns:sodipodi="http://sodipodi.sourceforge.net/DTD/sodipodi-0.dtd"
   xmlns="http://www.w3.org/2000/svg"
   xmlns:svg="http://www.w3.org/2000/svg">
  <sodipodi:namedview
     id="namedview1"
     pagecolor="#ffffff"
     bordercolor="#666666"
     borderopacity="1.0"
     inkscape:showpageshadow="2"
     inkscape:pageopacity="0.0"
     inkscape:pagecheckerboard="0"
     inkscape:deskcolor="#d1d1d1"
     inkscape:document-units="mm"
     inkscape:zoom="1"
     inkscape:cx="286"
     inkscape:cy="172.5"
     inkscape:window-width="1920"
     inkscape:window-height="1046"
     inkscape:window-x="-11"
     inkscape:window-y="-11"
     inkscape:window-maximized="1"
     inkscape:current-layer="layer1">
    <inkscape:page
       x="0"
       y="0"
       width="20.667072"
       height="20.508028"
       id="page1"
       margin="3.6621456 70.679413 45.776817 10.620222"
       bleed="0" />
  </sodipodi:namedview>
  <defs
     id="defs1">
    <pattern
       id="EMFhbasepattern"
       patternUnits="userSpaceOnUse"
       width="6"
       height="6"
       x="0"
       y="0" />
    <pattern
       id="EMFhbasepattern-8"
       patternUnits="userSpaceOnUse"
       width="6"
       height="6"
       x="0"
       y="0" />
    <pattern
       id="EMFhbasepattern-9"
       patternUnits="userSpaceOnUse"
       width="6"
       height="6"
       x="0"
       y="0" />
    <pattern
       id="EMFhbasepattern-2"
       patternUnits="userSpaceOnUse"
       width="6"
       height="6"
       x="0"
       y="0" />
    <pattern
       id="EMFhbasepattern-5"
       patternUnits="userSpaceOnUse"
       width="6"
       height="6"
       x="0"
       y="0" />
    <pattern
       id="EMFhbasepattern-4"
       patternUnits="userSpaceOnUse"
       width="6"
       height="6"
       x="0"
       y="0" />
  </defs>
  <g
     inkscape:label="Calque 1"
     inkscape:groupmode="layer"
     id="layer1"
     transform="translate(-34.42417,118.65351)">
    <path
       style="fill:#ffffff"
       d="m 41.625843,-101.16945 c -1.39895,-0.42747 -3.124263,-2.33474 -3.436559,-3.799 -0.640519,-3.00319 1.171287,-5.82093 4.177126,-6.4963 1.100199,-0.24719 3.099722,0.0403 3.577498,0.51438 0.138637,0.13756 0.374635,0.25011 0.524442,0.25011 0.149806,0 -0.663738,-0.94163 -1.807876,-2.09252 -2.078075,-2.09034 -2.079698,-2.09308 -1.551245,-2.62153 0.528453,-0.52845 0.533951,-0.52406 5.255936,4.2034 4.705072,4.71053 4.724616,4.73496 4.226853,5.28498 l -0.500075,0.55258 -2.072384,-2.06023 c -1.139812,-1.13312 -2.072384,-1.93766 -2.072384,-1.78785 0,0.1498 0.132265,0.40464 0.293922,0.5663 0.161657,0.16165 0.351144,1.05118 0.421081,1.97673 0.106651,1.41142 0.02706,1.86902 -0.493491,2.83743 -1.232606,2.29307 -4.035697,3.4376 -6.542844,2.67152 z m 3.568277,-1.58676 c 2.051002,-0.99287 2.793293,-3.76779 1.525478,-5.70272 -0.662816,-1.01158 -2.018282,-1.71077 -3.314408,-1.70967 -4.11615,0.004 -5.469585,5.4888 -1.816495,7.36201 1.440945,0.73888 2.16236,0.74896 3.605425,0.0504 z"
       id="path3" />
  </g>
</svg>
