<svg 
	height="1800" 
	viewBox="0 0 1400 1800" 
	width="1400" 
	xmlns="http://www.w3.org/2000/svg" 
	xmlns:inkscape="http://www.inkscape.org/namespaces/inkscape" 
	xmlns:sodipodi="http://sodipodi.sourceforge.net/DTD/sodipodi-0.dtd">
	<sodipodi:namedview pagecolor="#303030" showgrid="true">
		<inkscape:grid id="grid5" units="px" spacingx="100" spacingy="100" color="#4772b3" opacity="0.2" visible="true" />
	</sodipodi:namedview>
	<g fill="#fff">
		<g enable-background="new" transform="matrix(100 0 0 100 100 100)">
			<path d="m6 10
					 c-.55228 0-1 .4477-1 1
 					  0 .3701.2011.6933.5.8662
					 v1.1338
					 c0 .2761.22386.5.5.5
					 s.5-.2239.5-.5
					 v-1.1338
					 c.2989-.1729.5-.4961.5-.8662
					  0-.5523-.44772-1-1-1
					 z"/>
			<path clip-rule="evenodd" 
				  d="m6 1
				     c-2.20914 0-4 1.79086-4 4
					 v2h9.5
					 c.2761 0 .5.22386.5.5
					 v8
					 c0 .2761-.2239.5-.5.5
					 h-11
					 c-.276142 0-.5-.2239-.5-.5
					 v-8
					 c0-.27614.223858-.5.5-.5
					 h.5
					 v-2
					 c0-2.76142 2.23858-5 5-5
  					  2.2179 0 4.0985 1.44407 4.7529 3.44327
					  .0792.24192-.0641.49381-.3056.5743
					  -.2811.0937-.57876-.08103-.67818-.36014
					  -.55172-1.54876-2.03095-2.65743-3.76912-2.65743
					 z
					 m-5 7
					 v7
					 h10
					 v-7
					 z" 
				  fill-rule="evenodd"/>
		</g>
	</g>
</svg>